# xmcd
#
# Track frame offsets:
#	150
#	12420
#	28070
#	40555
#	58027
#	71857
#	88220
#	102625
#	116397
#	130422
#	143250
#	153727
#	165602
#
# Disc length: 2392 seconds
#
# Revision: 1
# Processed by: cddbd v1.5.2PL0 Copyright (c) Steve Scherf et al.
# Submitted via: EZCDAudioConverter 8.3.2.1
#
DISCID=b209560d
DTITLE=Mats Rådberg and Rankarna - Take me to the country
DYEAR=1983
DGENRE=Svensk
TTITLE0=Take me to the country
TTITLE1=Peta in en pinne i brasan
TTITLE2=Somebody's knockin'
TTITLE3=Gonna take my angel out tonight
TTITLE4=War is hell on the homefront
TTITLE5=Många mil
TTITLE6=You lay a lotta love on me
TTITLE7=Rescensenten
TTITLE8=Everything's a waltz (when you fall in love)
TTITLE9=Tulsa time
TTITLE10=Turn out the light and love me tonight
TTITLE11=Only one you
TTITLE12=Mamma låt ej din grabb växa upp till en cowboy
EXTD=
EXTT0=
EXTT1=
EXTT2=
EXTT3=
EXTT4=
EXTT5=
EXTT6=
EXTT7=
EXTT8=
EXTT9=
EXTT10=
EXTT11=
EXTT12=
PLAYORDER=
